<svg width="24" height="24" viewBox="0 0 24 24" fill="none" xmlns="http://www.w3.org/2000/svg">
<path fill-rule="evenodd" clip-rule="evenodd" d="M13.7071 1.29289C14.0976 1.68342 14.0976 2.31658 13.7071 2.70711L4.41421 12L13.7071 21.2929C14.0976 21.6834 14.0976 22.3166 13.7071 22.7071C13.3166 23.0976 12.6834 23.0976 12.2929 22.7071L2.29289 12.7071C1.90237 12.3166 1.90237 11.6834 2.29289 11.2929L12.2929 1.29289C12.6834 0.902369 13.3166 0.902369 13.7071 1.29289Z" fill="black"/>
<path fill-rule="evenodd" clip-rule="evenodd" d="M2 12C2 11.4477 2.44772 11 3 11H21C21.5523 11 22 11.4477 22 12C22 12.5523 21.5523 13 21 13H3C2.44772 13 2 12.5523 2 12Z" fill="black"/>
</svg>
