<svg width="32" height="32" viewBox="0 0 32 32" fill="none" xmlns="http://www.w3.org/2000/svg">
<path opacity="0.3" d="M2.66675 11.3334C2.66675 10.2288 3.56218 9.33337 4.66675 9.33337H27.3334C28.438 9.33337 29.3334 10.2288 29.3334 11.3334V27.3334C29.3334 28.4379 28.438 29.3334 27.3334 29.3334H4.66675C3.56218 29.3334 2.66675 28.4379 2.66675 27.3334V11.3334Z" fill="#1D99BE"/>
<path d="M10.6667 1.33337C11.4031 1.33337 12.0001 1.93033 12.0001 2.66671V5.33337H20.0001V2.66671C20.0001 1.93033 20.597 1.33337 21.3334 1.33337C22.0698 1.33337 22.6667 1.93033 22.6667 2.66671V5.33337H26.6667C28.1395 5.33337 29.3334 6.52728 29.3334 8.00004V13.3334H2.66675V8.00004C2.66675 6.52728 3.86066 5.33337 5.33341 5.33337H9.33342V2.66671C9.33342 1.93033 9.93037 1.33337 10.6667 1.33337Z" fill="#1D99BE"/>
</svg>
