<svg width="32" height="32" viewBox="0 0 32 32" fill="none" xmlns="http://www.w3.org/2000/svg">
<path opacity="0.3" d="M0 6.66667C0 5.19391 1.19391 4 2.66667 4H29.3333C30.8061 4 32 5.19391 32 6.66667V25.3333C32 26.8061 30.8061 28 29.3333 28H2.66667C1.19391 28 0 26.8061 0 25.3333V6.66667Z" fill="#1D99BE"/>
<path d="M15.3334 15.3333V12.5185H14.0742C13.2969 12.5185 12.6667 13.1487 12.6667 13.9259C12.6667 14.7032 13.2969 15.3333 14.0742 15.3333H15.3334Z" fill="#1D99BE"/>
<path d="M16.6667 16.6667V19.4815H17.926C18.7033 19.4815 19.3334 18.8514 19.3334 18.0741C19.3334 17.2968 18.7033 16.6667 17.926 16.6667H16.6667Z" fill="#1D99BE"/>
<path fill-rule="evenodd" clip-rule="evenodd" d="M25.3334 16C25.3334 21.1547 21.1547 25.3334 16.0001 25.3334C10.8454 25.3334 6.66675 21.1547 6.66675 16C6.66675 10.8454 10.8454 6.66669 16.0001 6.66669C21.1547 6.66669 25.3334 10.8454 25.3334 16ZM11.3334 13.9259C11.3334 12.4123 12.5605 11.1852 14.0742 11.1852H15.3334V10.6667C15.3334 10.2985 15.6319 10 16.0001 10C16.3683 10 16.6667 10.2985 16.6667 10.6667V11.1852H18.2667C19.5922 11.1852 20.6667 12.2597 20.6667 13.5852V13.6296C20.6667 13.9978 20.3683 14.2963 20.0001 14.2963C19.6319 14.2963 19.3334 13.9978 19.3334 13.6296V13.5852C19.3334 12.9961 18.8559 12.5185 18.2667 12.5185H16.6667V15.3333H17.926C19.4397 15.3333 20.6667 16.5604 20.6667 18.0741C20.6667 19.5878 19.4397 20.8148 17.926 20.8148H16.6667V21.3334C16.6667 21.7015 16.3683 22 16.0001 22C15.6319 22 15.3334 21.7015 15.3334 21.3334V20.8148H13.7334C12.4079 20.8148 11.3334 19.7403 11.3334 18.4148V18.3704C11.3334 18.0022 11.6319 17.7037 12.0001 17.7037C12.3683 17.7037 12.6667 18.0022 12.6667 18.3704V18.4148C12.6667 19.0039 13.1443 19.4815 13.7334 19.4815H15.3334V16.6667H14.0742C12.5605 16.6667 11.3334 15.4396 11.3334 13.9259Z" fill="#1D99BE"/>
</svg>
