<svg width="32" height="32" viewBox="0 0 32 32" fill="none" xmlns="http://www.w3.org/2000/svg">
<path fill-rule="evenodd" clip-rule="evenodd" d="M7.33341 11.3333C7.33341 16.1198 11.2136 20 16.0001 20C20.7865 20 24.6667 16.1198 24.6667 11.3333C24.6667 6.54687 20.7865 2.66667 16.0001 2.66667C11.2136 2.66667 7.33341 6.54687 7.33341 11.3333ZM16.0001 22.6667C9.74085 22.6667 4.66675 17.5926 4.66675 11.3333C4.66675 5.07411 9.74085 2.736e-07 16.0001 0C22.2593 -2.736e-07 27.3334 5.07411 27.3334 11.3333C27.3334 17.5926 22.2593 22.6667 16.0001 22.6667Z" fill="#A8A39B"/>
<path fill-rule="evenodd" clip-rule="evenodd" d="M16.0001 20C16.7365 20 17.3334 20.597 17.3334 21.3333L17.3334 30.6667C17.3334 31.403 16.7365 32 16.0001 32C15.2637 32 14.6667 31.403 14.6667 30.6667L14.6667 21.3333C14.6667 20.597 15.2637 20 16.0001 20Z" fill="#A8A39B"/>
<path fill-rule="evenodd" clip-rule="evenodd" d="M10.6667 26.6667C10.6667 25.9303 11.2637 25.3333 12.0001 25.3333H20.0001C20.7365 25.3333 21.3334 25.9303 21.3334 26.6667C21.3334 27.403 20.7365 28 20.0001 28H12.0001C11.2637 28 10.6667 27.403 10.6667 26.6667Z" fill="#A8A39B"/>
</svg>
