<svg width="485" height="98" viewBox="0 0 485 98" fill="none" xmlns="http://www.w3.org/2000/svg">
<path d="M446.58 3.07303H458.75L427.51 96.253H415.35L446.58 3.07303ZM470.65 55.553C471.93 51.8864 472.313 48.813 471.8 46.333C471.607 45.204 471.191 44.1247 470.576 43.1581C469.961 42.1915 469.16 41.3569 468.22 40.703C466.249 39.3963 463.924 38.7261 461.56 38.783C458.319 38.891 455.127 39.6068 452.15 40.893C448.61 42.2997 444.92 44.9664 441.08 48.893L441 42.113C444.234 37.9532 448.257 34.4733 452.84 31.873C456.657 29.7381 460.947 28.5933 465.32 28.543C470.273 28.543 474.35 29.7164 477.55 32.063C480.758 34.4258 483.025 37.848 483.95 41.723C485.01 45.823 484.647 50.5164 482.86 55.803L469.88 96.123H457.46L470.65 55.553ZM383.16 94.463C380.545 92.5618 378.778 89.7114 378.24 86.523C377.6 82.6392 378.04 78.6543 379.51 75.003L400.89 10.753H413.18L390.65 78.073C389.71 81.0664 389.773 83.3497 390.84 84.923C391.391 85.7036 392.135 86.3283 392.998 86.7366C393.862 87.1448 394.817 87.3228 395.77 87.253C397.416 87.2028 399.041 86.8643 400.57 86.253C402.391 85.5798 404.129 84.7008 405.75 83.633L409.6 92.253C407.209 93.7544 404.66 94.9884 402 95.933C399.295 96.8441 396.454 97.2905 393.6 97.253C389.24 97.253 385.76 96.3164 383.16 94.443V94.463ZM382.46 29.543H425.6L422 40.063H378.87L382.46 29.543ZM367 14.013C366.3 13.3462 365.746 12.5417 365.373 11.6502C364.999 10.7587 364.814 9.79948 364.83 8.83302C364.809 7.69713 365.026 6.56948 365.467 5.52243C365.908 4.47538 366.563 3.53206 367.39 2.75303C368.147 1.96491 369.056 1.33737 370.061 0.907857C371.066 0.478339 372.147 0.255635 373.24 0.253025C374.25 0.20574 375.259 0.367662 376.204 0.728636C377.148 1.08961 378.008 1.64185 378.729 2.35072C379.45 3.05959 380.017 3.90981 380.394 4.84805C380.771 5.78628 380.95 6.79231 380.92 7.80303C380.936 8.91025 380.716 10.0082 380.274 11.0237C379.833 12.0393 379.18 12.9492 378.36 13.693C377.569 14.473 376.632 15.0891 375.602 15.5061C374.573 15.9231 373.471 16.1328 372.36 16.123C371.371 16.1469 370.387 15.9726 369.467 15.6102C368.546 15.2478 367.707 14.7047 367 14.013ZM360.7 29.563H373.24L351 96.253H338.43L360.7 29.563ZM313.53 83.903C316.546 81.442 319.012 78.376 320.77 74.903C322.749 71.1407 324.232 67.1372 325.18 62.993C326.129 59.0322 326.622 54.9759 326.65 50.903C326.702 47.4119 326.315 43.928 325.5 40.533C324.8 37.7147 323.724 35.0036 322.3 32.473L334.21 27.353C335.132 29.2486 335.882 31.2232 336.45 33.253C337.137 35.6502 337.671 38.0884 338.05 40.553C338.48 43.3691 338.691 46.2143 338.68 49.063C338.662 53.5821 338.169 58.0868 337.21 62.503C336.25 67.0509 334.771 71.4733 332.8 75.683C330.911 79.7443 328.453 83.5156 325.5 86.883C322.63 90.1459 319.152 92.8189 315.26 94.753C311.122 96.7886 306.561 97.8166 301.95 97.753C296.74 97.753 292.61 96.513 289.53 94.043C286.441 91.5263 284.372 87.9721 283.71 84.043C282.903 79.8164 283.393 75.0997 285.18 69.893L298.11 29.703H310.4L296.06 73.473C294.607 78.073 294.737 81.5264 296.45 83.833C297.288 84.9613 298.392 85.8642 299.664 86.461C300.937 87.0579 302.337 87.33 303.74 87.253C307.298 87.2917 310.758 86.0934 313.53 83.863V83.903ZM285.18 69.753L290.3 79.753C288.577 84.9171 285.344 89.4456 281.02 92.753C276.789 96.0144 271.581 97.7516 266.24 97.683C261.367 97.683 257.527 96.4864 254.72 94.093C251.874 91.6649 250.026 88.271 249.53 84.563C248.927 80.0729 249.431 75.5033 251 71.253L264.56 29.523H276.72L262 74.493C260.81 78.423 260.83 81.593 262.07 84.033C263.31 86.473 265.5 87.673 268.66 87.673C271.619 87.6823 274.507 86.7663 276.92 85.053C279.6 83.0676 281.553 80.2569 282.48 77.053L285.18 69.753ZM194.17 93.253C189.159 90.3136 185.018 86.0966 182.17 81.033C179.112 75.5343 177.567 69.3235 177.69 63.033C177.623 58.2104 178.447 53.4168 180.12 48.893C181.63 44.8422 183.912 41.1233 186.84 37.943C189.658 34.9012 193.081 32.4827 196.89 30.843C200.704 29.151 204.828 28.2691 209 28.253C215.907 28.253 221.647 29.833 226.22 32.993C230.761 36.1251 234.33 40.4703 236.52 45.533C238.853 50.7963 240.04 56.4959 240 62.253C240.01 62.4489 239.986 62.6451 239.93 62.833C239.883 63.0193 239.863 63.2112 239.87 63.403H182.87V53.753H232.53L227.29 61.053V59.133C227.341 55.5318 226.575 51.9659 225.05 48.703C223.638 45.6866 221.424 43.1163 218.65 41.273C215.73 39.4 212.318 38.4424 208.85 38.523C206.071 38.4753 203.323 39.1142 200.85 40.383C198.488 41.6399 196.438 43.4099 194.85 45.563C193.136 47.8617 191.834 50.4398 191 53.183C190.085 56.146 189.629 59.2319 189.65 62.333C189.571 66.7554 190.516 71.136 192.41 75.133C194.093 78.7101 196.716 81.7623 200 83.963C203.239 86.1108 207.054 87.2265 210.94 87.163C214.637 87.2261 218.284 86.2972 221.5 84.473C224.62 82.6864 227.243 79.6597 229.37 75.393L239.23 80.763C236.545 85.9984 232.415 90.3539 227.33 93.313C222.271 96.1776 216.555 97.6782 210.742 97.6677C204.929 97.6572 199.218 96.1359 194.17 93.253ZM174.72 40.453C173.969 40.2074 173.195 40.0365 172.41 39.943C171.603 39.8577 170.792 39.8143 169.98 39.813C166.146 39.7135 162.424 41.1167 159.61 43.723C156.87 46.2138 154.727 49.29 153.34 52.723L150.91 48.623C153.037 41.883 156.037 36.6997 159.91 33.073C163.535 29.5355 168.415 27.5793 173.48 27.633H174.76L174.72 40.453ZM142.59 29.563H154.88L155 42.753L155.12 44.033V96.253H142.59V29.563ZM84.1 93.253C79.0875 90.3155 74.946 86.0981 72.1 81.033C69.0423 75.5343 67.4965 69.3235 67.62 63.033C67.53 58.1934 68.337 53.3789 70 48.833C71.5169 44.7835 73.8022 41.0653 76.73 37.883C79.5307 34.8437 82.9373 32.4251 86.73 30.783C90.5795 29.0989 94.7383 28.2372 98.94 28.253C105.847 28.253 111.587 29.833 116.16 32.993C120.701 36.1251 124.27 40.4703 126.46 45.533C128.786 50.7978 129.966 56.4974 129.92 62.253C129.927 62.4482 129.907 62.6434 129.86 62.833C129.804 63.0176 129.781 63.2104 129.79 63.403H72.79V53.753H122.45L117.21 61.053V59.133C117.27 55.5341 116.515 51.9683 115 48.703C113.588 45.6866 111.374 43.1163 108.6 41.273C105.684 39.4014 102.274 38.4438 98.81 38.523C96.0306 38.4728 93.2821 39.1119 90.81 40.383C88.447 41.6382 86.3965 43.4085 84.81 45.563C83.1105 47.8646 81.8215 50.4425 81 53.183C80.0879 56.1465 79.636 59.2324 79.66 62.333C79.5779 66.7546 80.5191 71.1353 82.41 75.133C84.0816 78.7051 86.6909 81.7568 89.96 83.963C93.1995 86.1108 97.0137 87.2265 100.9 87.163C104.597 87.2261 108.244 86.2972 111.46 84.473C114.58 82.6864 117.203 79.6597 119.33 75.393L129.19 80.763C126.505 85.9984 122.375 90.3539 117.29 93.313C112.229 96.185 106.507 97.6898 100.687 97.6792C94.8676 97.6687 89.1511 96.1433 84.1 93.253ZM0 3.07303H12.54V96.253H0V3.07303ZM42.37 53.883C42.4679 51.1013 41.8951 48.3368 40.7 45.823C39.6419 43.7425 37.9649 42.0412 35.9 40.953C33.7095 39.8103 31.2706 39.2263 28.8 39.253C25.2607 39.3089 21.7891 40.2326 18.69 41.943C14.9458 44.0226 11.711 46.909 9.22 50.393L6.66 43.393C9.5466 38.9557 13.3397 35.1796 17.79 32.313C22.1304 29.6206 27.153 28.2322 32.26 28.313C36.4246 28.2218 40.5364 29.2584 44.16 31.313C47.5116 33.2581 50.2597 36.0927 52.1 39.503C54.0323 43.2025 54.9989 47.3302 54.91 51.503V96.253H42.37V53.883Z" fill="#1D99BE"/>
</svg>
