<svg width="24" height="24" viewBox="0 0 24 24" fill="none" xmlns="http://www.w3.org/2000/svg">
<path fill-rule="evenodd" clip-rule="evenodd" d="M15.2928 15.2929C15.6834 14.9024 16.3165 14.9024 16.707 15.2929L21.7064 20.2922C22.0969 20.6828 22.0976 21.3166 21.707 21.7071C21.3165 22.0976 20.6834 22.0976 20.2928 21.7071L15.2928 16.7071C14.9023 16.3166 14.9023 15.6834 15.2928 15.2929Z" fill="white"/>
<path fill-rule="evenodd" clip-rule="evenodd" d="M10.5 4C6.91015 4 4 6.91015 4 10.5C4 14.0899 6.91015 17 10.5 17C14.0899 17 17 14.0899 17 10.5C17 6.91015 14.0899 4 10.5 4ZM2 10.5C2 5.80558 5.80558 2 10.5 2C15.1944 2 19 5.80558 19 10.5C19 15.1944 15.1944 19 10.5 19C5.80558 19 2 15.1944 2 10.5Z" fill="white"/>
</svg>
