<svg width="32" height="32" viewBox="0 0 32 32" fill="none" xmlns="http://www.w3.org/2000/svg">
<path fill-rule="evenodd" clip-rule="evenodd" d="M20.3903 11.6093C19.8696 11.0886 19.8696 10.2444 20.3903 9.72367L28.3895 1.72452C28.9102 1.20382 29.7553 1.20297 30.276 1.72367C30.7967 2.24437 30.7967 3.08859 30.276 3.60929L22.276 11.6093C21.7553 12.13 20.911 12.13 20.3903 11.6093Z" fill="#A8A39B"/>
<path fill-rule="evenodd" clip-rule="evenodd" d="M5.33317 17.9997C5.33317 22.7862 9.21337 26.6664 13.9998 26.6664C18.7863 26.6664 22.6665 22.7862 22.6665 17.9997C22.6665 13.2133 18.7863 9.33306 13.9998 9.33307C9.21337 9.33307 5.33317 13.2133 5.33317 17.9997ZM13.9998 29.3331C7.74061 29.3331 2.6665 24.259 2.6665 17.9997C2.6665 11.7405 7.74061 6.6664 13.9998 6.6664C20.2591 6.6664 25.3332 11.7405 25.3332 17.9997C25.3332 24.259 20.2591 29.3331 13.9998 29.3331Z" fill="#A8A39B"/>
<path fill-rule="evenodd" clip-rule="evenodd" d="M21.3334 2.66666C21.3334 1.93028 21.9304 1.33333 22.6667 1.33333H29.3334C30.0698 1.33333 30.6667 1.93028 30.6667 2.66666V9.33333C30.6667 10.0697 30.0698 10.6667 29.3334 10.6667C28.597 10.6667 28.0001 10.0697 28.0001 9.33333V3.99999H22.6667C21.9304 3.99999 21.3334 3.40304 21.3334 2.66666Z" fill="#A8A39B"/>
</svg>
