<svg width="24" height="24" viewBox="0 0 24 24" fill="none" xmlns="http://www.w3.org/2000/svg">
<path d="M6.70446 17.2955C11.2919 21.883 17.2422 23.3706 19.9947 20.6181L21.6559 18.9568C22.1147 18.4981 22.1147 17.7543 21.6559 17.2955L17.5028 13.1424C17.044 12.6836 16.3002 12.6836 15.8415 13.1424L14.6247 14.3591C14.347 14.6368 14.2265 15.035 14.3035 15.4201L14.5713 16.7589C13.3488 16.5828 11.6138 15.5598 10.027 13.973C8.44017 12.3862 7.41717 10.6512 7.24111 9.42875L8.5799 9.69651C8.96504 9.77354 9.36319 9.65299 9.64091 9.37526L10.8576 8.15853C11.3164 7.69978 11.3164 6.956 10.8576 6.49725L6.70446 2.34406C6.24571 1.88531 5.50193 1.88531 5.04318 2.34406L3.3819 4.00534C0.629412 6.75783 2.11697 12.7081 6.70446 17.2955Z" fill="white"/>
<g opacity="0.3">
<path fill-rule="evenodd" clip-rule="evenodd" d="M20.8284 3.17289C21.219 3.56342 21.219 4.19658 20.8284 4.58711L18.7071 6.70843C18.3166 7.09895 17.6834 7.09895 17.2929 6.70843C16.9024 6.3179 16.9024 5.68474 17.2929 5.29421L19.4142 3.17289C19.8047 2.78237 20.4379 2.78237 20.8284 3.17289Z" fill="white"/>
<path d="M14 0C14.5523 0 15 0.447715 15 1V4C15 4.55228 14.5523 5 14 5C13.4477 5 13 4.55228 13 4V1C13 0.447715 13.4477 0 14 0Z" fill="white"/>
<path d="M19 10C19 9.44771 19.4477 9 20 9H23C23.5523 9 24 9.44771 24 10C24 10.5523 23.5523 11 23 11H20C19.4477 11 19 10.5523 19 10Z" fill="white"/>
</g>
</svg>
